# xmcd CD database file
#
# Track frame offsets:
#	150
#	23271
#	47153
#	68135
#	84826
#	103530
#	119170
#	143846
#	170408
#	180906
#	209109
#	230150
#	247054
#
# Disc length: 3556 seconds
#
# Revision: 0
# Processed by: cddbd v1.5.2PL0 Copyright (c) Steve Scherf et al.
# Submitted via: CDex 1.51
#
DISCID=b30de20d
DTITLE=So Weiss - Happiness for a Moment
DYEAR=2008
DGENRE=Jazz
TTITLE0=I've got it all
TTITLE1=Song, to Celia
TTITLE2=After all this
TTITLE3=The White Birds
TTITLE4=Happiness for a Moment
TTITLE5=Silent
TTITLE6=The End of Me
TTITLE7=I find no peace
TTITLE8=My November Guest
TTITLE9=Drifting off
TTITLE10=Recover
TTITLE11=Why did I laugh
TTITLE12=Time to go
EXTD=YEAR: 2008
EXTT0=
EXTT1=
EXTT2=
EXTT3=
EXTT4=
EXTT5=
EXTT6=
EXTT7=
EXTT8=
EXTT9=
EXTT10=
EXTT11=
EXTT12=
PLAYORDER=
